<mxfile host="app.diagrams.net" modified="2020-09-04T04:02:10.218Z" agent="5.0 (X11)" etag="UiVFUMjz4vAmH4WXKqcw" version="13.6.6" type="github">
  <diagram id="R2lEEEUBdFMjLlhIrx00" name="Page-1">
    <mxGraphModel dx="1357" dy="778" grid="1" gridSize="10" guides="1" tooltips="1" connect="1" arrows="1" fold="1" page="1" pageScale="1" pageWidth="850" pageHeight="1100" math="0" shadow="0" extFonts="Permanent Marker^https://fonts.googleapis.com/css?family=Permanent+Marker">
      <root>
        <mxCell id="0" />
        <mxCell id="1" parent="0" />
        <object label="sigfacil_ambiental.s_condicionante" nu_seq_orgao="" id="eV84DK9J-S-9GmUmP68l-13">
          <mxCell style="shape=table;startSize=30;container=1;collapsible=1;childLayout=tableLayout;fixedRows=1;rowLines=0;fontStyle=1;align=center;resizeLast=1;" vertex="1" parent="1">
            <mxGeometry x="20" y="180" width="230" height="260" as="geometry">
              <mxRectangle x="390" y="160" width="230" height="30" as="alternateBounds" />
            </mxGeometry>
          </mxCell>
        </object>
        <mxCell id="eV84DK9J-S-9GmUmP68l-14" value="" style="shape=partialRectangle;collapsible=0;dropTarget=0;pointerEvents=0;fillColor=none;top=0;left=0;bottom=1;right=0;points=[[0,0.5],[1,0.5]];portConstraint=eastwest;" vertex="1" parent="eV84DK9J-S-9GmUmP68l-13">
          <mxGeometry y="30" width="230" height="30" as="geometry" />
        </mxCell>
        <mxCell id="eV84DK9J-S-9GmUmP68l-15" value="PK" style="shape=partialRectangle;connectable=0;fillColor=none;top=0;left=0;bottom=0;right=0;fontStyle=1;overflow=hidden;" vertex="1" parent="eV84DK9J-S-9GmUmP68l-14">
          <mxGeometry width="30" height="30" as="geometry" />
        </mxCell>
        <mxCell id="eV84DK9J-S-9GmUmP68l-16" value="nu_seq_condicionante" style="shape=partialRectangle;connectable=0;fillColor=none;top=0;left=0;bottom=0;right=0;align=left;spacingLeft=6;fontStyle=5;overflow=hidden;" vertex="1" parent="eV84DK9J-S-9GmUmP68l-14">
          <mxGeometry x="30" width="200" height="30" as="geometry" />
        </mxCell>
        <mxCell id="eV84DK9J-S-9GmUmP68l-17" value="" style="shape=partialRectangle;collapsible=0;dropTarget=0;pointerEvents=0;fillColor=none;top=0;left=0;bottom=0;right=0;points=[[0,0.5],[1,0.5]];portConstraint=eastwest;" vertex="1" parent="eV84DK9J-S-9GmUmP68l-13">
          <mxGeometry y="60" width="230" height="30" as="geometry" />
        </mxCell>
        <mxCell id="eV84DK9J-S-9GmUmP68l-18" value="" style="shape=partialRectangle;connectable=0;fillColor=none;top=0;left=0;bottom=0;right=0;editable=1;overflow=hidden;" vertex="1" parent="eV84DK9J-S-9GmUmP68l-17">
          <mxGeometry width="30" height="30" as="geometry" />
        </mxCell>
        <mxCell id="eV84DK9J-S-9GmUmP68l-19" value="nu_seq_categoria_condicionante" style="shape=partialRectangle;connectable=0;fillColor=none;top=0;left=0;bottom=0;right=0;align=left;spacingLeft=6;overflow=hidden;" vertex="1" parent="eV84DK9J-S-9GmUmP68l-17">
          <mxGeometry x="30" width="200" height="30" as="geometry" />
        </mxCell>
        <mxCell id="eV84DK9J-S-9GmUmP68l-20" value="" style="shape=partialRectangle;collapsible=0;dropTarget=0;pointerEvents=0;fillColor=none;top=0;left=0;bottom=0;right=0;points=[[0,0.5],[1,0.5]];portConstraint=eastwest;" vertex="1" parent="eV84DK9J-S-9GmUmP68l-13">
          <mxGeometry y="90" width="230" height="30" as="geometry" />
        </mxCell>
        <mxCell id="eV84DK9J-S-9GmUmP68l-21" value="" style="shape=partialRectangle;connectable=0;fillColor=none;top=0;left=0;bottom=0;right=0;editable=1;overflow=hidden;" vertex="1" parent="eV84DK9J-S-9GmUmP68l-20">
          <mxGeometry width="30" height="30" as="geometry" />
        </mxCell>
        <mxCell id="eV84DK9J-S-9GmUmP68l-22" value="ds_descrição" style="shape=partialRectangle;connectable=0;fillColor=none;top=0;left=0;bottom=0;right=0;align=left;spacingLeft=6;overflow=hidden;" vertex="1" parent="eV84DK9J-S-9GmUmP68l-20">
          <mxGeometry x="30" width="200" height="30" as="geometry" />
        </mxCell>
        <mxCell id="eV84DK9J-S-9GmUmP68l-23" value="" style="shape=partialRectangle;collapsible=0;dropTarget=0;pointerEvents=0;fillColor=none;top=0;left=0;bottom=0;right=0;points=[[0,0.5],[1,0.5]];portConstraint=eastwest;" vertex="1" parent="eV84DK9J-S-9GmUmP68l-13">
          <mxGeometry y="120" width="230" height="30" as="geometry" />
        </mxCell>
        <mxCell id="eV84DK9J-S-9GmUmP68l-24" value="" style="shape=partialRectangle;connectable=0;fillColor=none;top=0;left=0;bottom=0;right=0;editable=1;overflow=hidden;" vertex="1" parent="eV84DK9J-S-9GmUmP68l-23">
          <mxGeometry width="30" height="30" as="geometry" />
        </mxCell>
        <mxCell id="eV84DK9J-S-9GmUmP68l-25" value="is_precadastrada" style="shape=partialRectangle;connectable=0;fillColor=none;top=0;left=0;bottom=0;right=0;align=left;spacingLeft=6;overflow=hidden;" vertex="1" parent="eV84DK9J-S-9GmUmP68l-23">
          <mxGeometry x="30" width="200" height="30" as="geometry" />
        </mxCell>
        <mxCell id="eV84DK9J-S-9GmUmP68l-27" value="" style="shape=partialRectangle;collapsible=0;dropTarget=0;pointerEvents=0;fillColor=none;top=0;left=0;bottom=0;right=0;points=[[0,0.5],[1,0.5]];portConstraint=eastwest;" vertex="1" parent="eV84DK9J-S-9GmUmP68l-13">
          <mxGeometry y="150" width="230" height="30" as="geometry" />
        </mxCell>
        <mxCell id="eV84DK9J-S-9GmUmP68l-28" value="" style="shape=partialRectangle;connectable=0;fillColor=none;top=0;left=0;bottom=0;right=0;editable=1;overflow=hidden;" vertex="1" parent="eV84DK9J-S-9GmUmP68l-27">
          <mxGeometry width="30" height="30" as="geometry" />
        </mxCell>
        <mxCell id="eV84DK9J-S-9GmUmP68l-29" value="nu_seq_orgao" style="shape=partialRectangle;connectable=0;fillColor=none;top=0;left=0;bottom=0;right=0;align=left;spacingLeft=6;overflow=hidden;" vertex="1" parent="eV84DK9J-S-9GmUmP68l-27">
          <mxGeometry x="30" width="200" height="30" as="geometry" />
        </mxCell>
        <mxCell id="eV84DK9J-S-9GmUmP68l-30" value="" style="shape=partialRectangle;collapsible=0;dropTarget=0;pointerEvents=0;fillColor=none;top=0;left=0;bottom=0;right=0;points=[[0,0.5],[1,0.5]];portConstraint=eastwest;" vertex="1" parent="eV84DK9J-S-9GmUmP68l-13">
          <mxGeometry y="180" width="230" height="30" as="geometry" />
        </mxCell>
        <mxCell id="eV84DK9J-S-9GmUmP68l-31" value="" style="shape=partialRectangle;connectable=0;fillColor=none;top=0;left=0;bottom=0;right=0;editable=1;overflow=hidden;" vertex="1" parent="eV84DK9J-S-9GmUmP68l-30">
          <mxGeometry width="30" height="30" as="geometry" />
        </mxCell>
        <mxCell id="eV84DK9J-S-9GmUmP68l-32" value="nu_ordem" style="shape=partialRectangle;connectable=0;fillColor=none;top=0;left=0;bottom=0;right=0;align=left;spacingLeft=6;overflow=hidden;" vertex="1" parent="eV84DK9J-S-9GmUmP68l-30">
          <mxGeometry x="30" width="200" height="30" as="geometry" />
        </mxCell>
        <mxCell id="eV84DK9J-S-9GmUmP68l-59" style="edgeStyle=orthogonalEdgeStyle;rounded=0;orthogonalLoop=1;jettySize=auto;html=1;entryX=1;entryY=0.5;entryDx=0;entryDy=0;endArrow=none;endFill=0;" edge="1" parent="1" source="eV84DK9J-S-9GmUmP68l-50" target="eV84DK9J-S-9GmUmP68l-17">
          <mxGeometry relative="1" as="geometry" />
        </mxCell>
        <mxCell id="eV84DK9J-S-9GmUmP68l-60" style="edgeStyle=orthogonalEdgeStyle;rounded=0;orthogonalLoop=1;jettySize=auto;html=1;entryX=0;entryY=0.75;entryDx=0;entryDy=0;endArrow=none;endFill=0;" edge="1" parent="1" source="eV84DK9J-S-9GmUmP68l-50" target="eV84DK9J-S-9GmUmP68l-33">
          <mxGeometry relative="1" as="geometry" />
        </mxCell>
        <mxCell id="eV84DK9J-S-9GmUmP68l-46" value="sigfacil_ambiental.s_condicionante_licenca" style="shape=table;startSize=30;container=1;collapsible=1;childLayout=tableLayout;fixedRows=1;rowLines=0;fontStyle=1;align=center;resizeLast=1;" vertex="1" parent="1">
          <mxGeometry x="300" y="180" width="270" height="260" as="geometry" />
        </mxCell>
        <mxCell id="eV84DK9J-S-9GmUmP68l-47" value="" style="shape=partialRectangle;collapsible=0;dropTarget=0;pointerEvents=0;fillColor=none;top=0;left=0;bottom=1;right=0;points=[[0,0.5],[1,0.5]];portConstraint=eastwest;" vertex="1" parent="eV84DK9J-S-9GmUmP68l-46">
          <mxGeometry y="30" width="270" height="30" as="geometry" />
        </mxCell>
        <mxCell id="eV84DK9J-S-9GmUmP68l-48" value="PK" style="shape=partialRectangle;connectable=0;fillColor=none;top=0;left=0;bottom=0;right=0;fontStyle=1;overflow=hidden;" vertex="1" parent="eV84DK9J-S-9GmUmP68l-47">
          <mxGeometry width="30" height="30" as="geometry" />
        </mxCell>
        <mxCell id="eV84DK9J-S-9GmUmP68l-49" value="nu_seq_condicionante_licenca" style="shape=partialRectangle;connectable=0;fillColor=none;top=0;left=0;bottom=0;right=0;align=left;spacingLeft=6;fontStyle=5;overflow=hidden;" vertex="1" parent="eV84DK9J-S-9GmUmP68l-47">
          <mxGeometry x="30" width="240" height="30" as="geometry" />
        </mxCell>
        <mxCell id="eV84DK9J-S-9GmUmP68l-50" value="" style="shape=partialRectangle;collapsible=0;dropTarget=0;pointerEvents=0;fillColor=none;top=0;left=0;bottom=0;right=0;points=[[0,0.5],[1,0.5]];portConstraint=eastwest;" vertex="1" parent="eV84DK9J-S-9GmUmP68l-46">
          <mxGeometry y="60" width="270" height="30" as="geometry" />
        </mxCell>
        <mxCell id="eV84DK9J-S-9GmUmP68l-51" value="" style="shape=partialRectangle;connectable=0;fillColor=none;top=0;left=0;bottom=0;right=0;editable=1;overflow=hidden;" vertex="1" parent="eV84DK9J-S-9GmUmP68l-50">
          <mxGeometry width="30" height="30" as="geometry" />
        </mxCell>
        <mxCell id="eV84DK9J-S-9GmUmP68l-52" value="nu_seq_lcondicionante" style="shape=partialRectangle;connectable=0;fillColor=none;top=0;left=0;bottom=0;right=0;align=left;spacingLeft=6;overflow=hidden;" vertex="1" parent="eV84DK9J-S-9GmUmP68l-50">
          <mxGeometry x="30" width="240" height="30" as="geometry" />
        </mxCell>
        <mxCell id="eV84DK9J-S-9GmUmP68l-53" value="" style="shape=partialRectangle;collapsible=0;dropTarget=0;pointerEvents=0;fillColor=none;top=0;left=0;bottom=0;right=0;points=[[0,0.5],[1,0.5]];portConstraint=eastwest;" vertex="1" parent="eV84DK9J-S-9GmUmP68l-46">
          <mxGeometry y="90" width="270" height="30" as="geometry" />
        </mxCell>
        <mxCell id="eV84DK9J-S-9GmUmP68l-54" value="" style="shape=partialRectangle;connectable=0;fillColor=none;top=0;left=0;bottom=0;right=0;editable=1;overflow=hidden;" vertex="1" parent="eV84DK9J-S-9GmUmP68l-53">
          <mxGeometry width="30" height="30" as="geometry" />
        </mxCell>
        <mxCell id="eV84DK9J-S-9GmUmP68l-55" value="nu_seq_licenca" style="shape=partialRectangle;connectable=0;fillColor=none;top=0;left=0;bottom=0;right=0;align=left;spacingLeft=6;overflow=hidden;" vertex="1" parent="eV84DK9J-S-9GmUmP68l-53">
          <mxGeometry x="30" width="240" height="30" as="geometry" />
        </mxCell>
        <mxCell id="eV84DK9J-S-9GmUmP68l-56" value="" style="shape=partialRectangle;collapsible=0;dropTarget=0;pointerEvents=0;fillColor=none;top=0;left=0;bottom=0;right=0;points=[[0,0.5],[1,0.5]];portConstraint=eastwest;" vertex="1" parent="eV84DK9J-S-9GmUmP68l-46">
          <mxGeometry y="120" width="270" height="30" as="geometry" />
        </mxCell>
        <mxCell id="eV84DK9J-S-9GmUmP68l-57" value="" style="shape=partialRectangle;connectable=0;fillColor=none;top=0;left=0;bottom=0;right=0;editable=1;overflow=hidden;" vertex="1" parent="eV84DK9J-S-9GmUmP68l-56">
          <mxGeometry width="30" height="30" as="geometry" />
        </mxCell>
        <mxCell id="eV84DK9J-S-9GmUmP68l-58" value="nu_seq_usuario" style="shape=partialRectangle;connectable=0;fillColor=none;top=0;left=0;bottom=0;right=0;align=left;spacingLeft=6;overflow=hidden;" vertex="1" parent="eV84DK9J-S-9GmUmP68l-56">
          <mxGeometry x="30" width="240" height="30" as="geometry" />
        </mxCell>
        <mxCell id="eV84DK9J-S-9GmUmP68l-61" value="" style="shape=partialRectangle;collapsible=0;dropTarget=0;pointerEvents=0;fillColor=none;top=0;left=0;bottom=0;right=0;points=[[0,0.5],[1,0.5]];portConstraint=eastwest;" vertex="1" parent="eV84DK9J-S-9GmUmP68l-46">
          <mxGeometry y="150" width="270" height="30" as="geometry" />
        </mxCell>
        <mxCell id="eV84DK9J-S-9GmUmP68l-62" value="" style="shape=partialRectangle;connectable=0;fillColor=none;top=0;left=0;bottom=0;right=0;editable=1;overflow=hidden;" vertex="1" parent="eV84DK9J-S-9GmUmP68l-61">
          <mxGeometry width="30" height="30" as="geometry" />
        </mxCell>
        <mxCell id="eV84DK9J-S-9GmUmP68l-63" value="dt_adicao" style="shape=partialRectangle;connectable=0;fillColor=none;top=0;left=0;bottom=0;right=0;align=left;spacingLeft=6;overflow=hidden;" vertex="1" parent="eV84DK9J-S-9GmUmP68l-61">
          <mxGeometry x="30" width="240" height="30" as="geometry" />
        </mxCell>
        <mxCell id="eV84DK9J-S-9GmUmP68l-64" value="" style="shape=partialRectangle;collapsible=0;dropTarget=0;pointerEvents=0;fillColor=none;top=0;left=0;bottom=0;right=0;points=[[0,0.5],[1,0.5]];portConstraint=eastwest;" vertex="1" parent="eV84DK9J-S-9GmUmP68l-46">
          <mxGeometry y="180" width="270" height="30" as="geometry" />
        </mxCell>
        <mxCell id="eV84DK9J-S-9GmUmP68l-65" value="" style="shape=partialRectangle;connectable=0;fillColor=none;top=0;left=0;bottom=0;right=0;editable=1;overflow=hidden;" vertex="1" parent="eV84DK9J-S-9GmUmP68l-64">
          <mxGeometry width="30" height="30" as="geometry" />
        </mxCell>
        <mxCell id="eV84DK9J-S-9GmUmP68l-66" value="vl_prazo" style="shape=partialRectangle;connectable=0;fillColor=none;top=0;left=0;bottom=0;right=0;align=left;spacingLeft=6;overflow=hidden;" vertex="1" parent="eV84DK9J-S-9GmUmP68l-64">
          <mxGeometry x="30" width="240" height="30" as="geometry" />
        </mxCell>
        <mxCell id="eV84DK9J-S-9GmUmP68l-67" value="" style="shape=partialRectangle;collapsible=0;dropTarget=0;pointerEvents=0;fillColor=none;top=0;left=0;bottom=0;right=0;points=[[0,0.5],[1,0.5]];portConstraint=eastwest;" vertex="1" parent="eV84DK9J-S-9GmUmP68l-46">
          <mxGeometry y="210" width="270" height="30" as="geometry" />
        </mxCell>
        <mxCell id="eV84DK9J-S-9GmUmP68l-68" value="" style="shape=partialRectangle;connectable=0;fillColor=none;top=0;left=0;bottom=0;right=0;editable=1;overflow=hidden;" vertex="1" parent="eV84DK9J-S-9GmUmP68l-67">
          <mxGeometry width="30" height="30" as="geometry" />
        </mxCell>
        <mxCell id="eV84DK9J-S-9GmUmP68l-69" value="ds_periodo" style="shape=partialRectangle;connectable=0;fillColor=none;top=0;left=0;bottom=0;right=0;align=left;spacingLeft=6;overflow=hidden;" vertex="1" parent="eV84DK9J-S-9GmUmP68l-67">
          <mxGeometry x="30" width="240" height="30" as="geometry" />
        </mxCell>
        <mxCell id="eV84DK9J-S-9GmUmP68l-119" style="edgeStyle=orthogonalEdgeStyle;rounded=0;orthogonalLoop=1;jettySize=auto;html=1;exitX=0.5;exitY=0;exitDx=0;exitDy=0;endArrow=none;endFill=0;strokeColor=#000000;" edge="1" parent="1" source="eV84DK9J-S-9GmUmP68l-83">
          <mxGeometry relative="1" as="geometry">
            <mxPoint x="410" y="440" as="targetPoint" />
          </mxGeometry>
        </mxCell>
        <mxCell id="eV84DK9J-S-9GmUmP68l-83" value="sigfacil_ambiental.s_andamento" style="shape=table;startSize=30;container=1;collapsible=1;childLayout=tableLayout;fixedRows=1;rowLines=0;fontStyle=1;align=center;resizeLast=1;" vertex="1" parent="1">
          <mxGeometry x="300" y="500" width="220" height="250" as="geometry" />
        </mxCell>
        <mxCell id="eV84DK9J-S-9GmUmP68l-84" value="" style="shape=partialRectangle;collapsible=0;dropTarget=0;pointerEvents=0;fillColor=none;top=0;left=0;bottom=1;right=0;points=[[0,0.5],[1,0.5]];portConstraint=eastwest;" vertex="1" parent="eV84DK9J-S-9GmUmP68l-83">
          <mxGeometry y="30" width="220" height="30" as="geometry" />
        </mxCell>
        <mxCell id="eV84DK9J-S-9GmUmP68l-85" value="PK" style="shape=partialRectangle;connectable=0;fillColor=none;top=0;left=0;bottom=0;right=0;fontStyle=1;overflow=hidden;" vertex="1" parent="eV84DK9J-S-9GmUmP68l-84">
          <mxGeometry width="30" height="30" as="geometry" />
        </mxCell>
        <mxCell id="eV84DK9J-S-9GmUmP68l-86" value="nu_seq_andamento" style="shape=partialRectangle;connectable=0;fillColor=none;top=0;left=0;bottom=0;right=0;align=left;spacingLeft=6;fontStyle=5;overflow=hidden;" vertex="1" parent="eV84DK9J-S-9GmUmP68l-84">
          <mxGeometry x="30" width="190" height="30" as="geometry" />
        </mxCell>
        <mxCell id="eV84DK9J-S-9GmUmP68l-87" value="" style="shape=partialRectangle;collapsible=0;dropTarget=0;pointerEvents=0;fillColor=none;top=0;left=0;bottom=0;right=0;points=[[0,0.5],[1,0.5]];portConstraint=eastwest;" vertex="1" parent="eV84DK9J-S-9GmUmP68l-83">
          <mxGeometry y="60" width="220" height="30" as="geometry" />
        </mxCell>
        <mxCell id="eV84DK9J-S-9GmUmP68l-88" value="" style="shape=partialRectangle;connectable=0;fillColor=none;top=0;left=0;bottom=0;right=0;editable=1;overflow=hidden;" vertex="1" parent="eV84DK9J-S-9GmUmP68l-87">
          <mxGeometry width="30" height="30" as="geometry" />
        </mxCell>
        <mxCell id="eV84DK9J-S-9GmUmP68l-89" value="nu_seq_orgao" style="shape=partialRectangle;connectable=0;fillColor=none;top=0;left=0;bottom=0;right=0;align=left;spacingLeft=6;overflow=hidden;" vertex="1" parent="eV84DK9J-S-9GmUmP68l-87">
          <mxGeometry x="30" width="190" height="30" as="geometry" />
        </mxCell>
        <mxCell id="eV84DK9J-S-9GmUmP68l-90" value="" style="shape=partialRectangle;collapsible=0;dropTarget=0;pointerEvents=0;fillColor=none;top=0;left=0;bottom=0;right=0;points=[[0,0.5],[1,0.5]];portConstraint=eastwest;" vertex="1" parent="eV84DK9J-S-9GmUmP68l-83">
          <mxGeometry y="90" width="220" height="30" as="geometry" />
        </mxCell>
        <mxCell id="eV84DK9J-S-9GmUmP68l-91" value="" style="shape=partialRectangle;connectable=0;fillColor=none;top=0;left=0;bottom=0;right=0;editable=1;overflow=hidden;" vertex="1" parent="eV84DK9J-S-9GmUmP68l-90">
          <mxGeometry width="30" height="30" as="geometry" />
        </mxCell>
        <mxCell id="eV84DK9J-S-9GmUmP68l-92" value="nu_seq_status" style="shape=partialRectangle;connectable=0;fillColor=none;top=0;left=0;bottom=0;right=0;align=left;spacingLeft=6;overflow=hidden;" vertex="1" parent="eV84DK9J-S-9GmUmP68l-90">
          <mxGeometry x="30" width="190" height="30" as="geometry" />
        </mxCell>
        <mxCell id="eV84DK9J-S-9GmUmP68l-93" value="" style="shape=partialRectangle;collapsible=0;dropTarget=0;pointerEvents=0;fillColor=none;top=0;left=0;bottom=0;right=0;points=[[0,0.5],[1,0.5]];portConstraint=eastwest;" vertex="1" parent="eV84DK9J-S-9GmUmP68l-83">
          <mxGeometry y="120" width="220" height="30" as="geometry" />
        </mxCell>
        <mxCell id="eV84DK9J-S-9GmUmP68l-94" value="" style="shape=partialRectangle;connectable=0;fillColor=none;top=0;left=0;bottom=0;right=0;editable=1;overflow=hidden;" vertex="1" parent="eV84DK9J-S-9GmUmP68l-93">
          <mxGeometry width="30" height="30" as="geometry" />
        </mxCell>
        <mxCell id="eV84DK9J-S-9GmUmP68l-95" value="nu_seq_usuario" style="shape=partialRectangle;connectable=0;fillColor=none;top=0;left=0;bottom=0;right=0;align=left;spacingLeft=6;overflow=hidden;" vertex="1" parent="eV84DK9J-S-9GmUmP68l-93">
          <mxGeometry x="30" width="190" height="30" as="geometry" />
        </mxCell>
        <mxCell id="eV84DK9J-S-9GmUmP68l-96" value="" style="shape=partialRectangle;collapsible=0;dropTarget=0;pointerEvents=0;fillColor=none;top=0;left=0;bottom=0;right=0;points=[[0,0.5],[1,0.5]];portConstraint=eastwest;" vertex="1" parent="eV84DK9J-S-9GmUmP68l-83">
          <mxGeometry y="150" width="220" height="30" as="geometry" />
        </mxCell>
        <mxCell id="eV84DK9J-S-9GmUmP68l-97" value="" style="shape=partialRectangle;connectable=0;fillColor=none;top=0;left=0;bottom=0;right=0;editable=1;overflow=hidden;" vertex="1" parent="eV84DK9J-S-9GmUmP68l-96">
          <mxGeometry width="30" height="30" as="geometry" />
        </mxCell>
        <mxCell id="eV84DK9J-S-9GmUmP68l-98" value="dt_inicio" style="shape=partialRectangle;connectable=0;fillColor=none;top=0;left=0;bottom=0;right=0;align=left;spacingLeft=6;overflow=hidden;" vertex="1" parent="eV84DK9J-S-9GmUmP68l-96">
          <mxGeometry x="30" width="190" height="30" as="geometry" />
        </mxCell>
        <mxCell id="eV84DK9J-S-9GmUmP68l-99" value="" style="shape=partialRectangle;collapsible=0;dropTarget=0;pointerEvents=0;fillColor=none;top=0;left=0;bottom=0;right=0;points=[[0,0.5],[1,0.5]];portConstraint=eastwest;" vertex="1" parent="eV84DK9J-S-9GmUmP68l-83">
          <mxGeometry y="180" width="220" height="30" as="geometry" />
        </mxCell>
        <mxCell id="eV84DK9J-S-9GmUmP68l-100" value="" style="shape=partialRectangle;connectable=0;fillColor=none;top=0;left=0;bottom=0;right=0;editable=1;overflow=hidden;" vertex="1" parent="eV84DK9J-S-9GmUmP68l-99">
          <mxGeometry width="30" height="30" as="geometry" />
        </mxCell>
        <mxCell id="eV84DK9J-S-9GmUmP68l-101" value="dt_fim" style="shape=partialRectangle;connectable=0;fillColor=none;top=0;left=0;bottom=0;right=0;align=left;spacingLeft=6;overflow=hidden;" vertex="1" parent="eV84DK9J-S-9GmUmP68l-99">
          <mxGeometry x="30" width="190" height="30" as="geometry" />
        </mxCell>
        <mxCell id="eV84DK9J-S-9GmUmP68l-102" value="" style="shape=partialRectangle;collapsible=0;dropTarget=0;pointerEvents=0;fillColor=none;top=0;left=0;bottom=0;right=0;points=[[0,0.5],[1,0.5]];portConstraint=eastwest;" vertex="1" parent="eV84DK9J-S-9GmUmP68l-83">
          <mxGeometry y="210" width="220" height="30" as="geometry" />
        </mxCell>
        <mxCell id="eV84DK9J-S-9GmUmP68l-103" value="" style="shape=partialRectangle;connectable=0;fillColor=none;top=0;left=0;bottom=0;right=0;editable=1;overflow=hidden;" vertex="1" parent="eV84DK9J-S-9GmUmP68l-102">
          <mxGeometry width="30" height="30" as="geometry" />
        </mxCell>
        <mxCell id="eV84DK9J-S-9GmUmP68l-104" value="ds_observacao" style="shape=partialRectangle;connectable=0;fillColor=none;top=0;left=0;bottom=0;right=0;align=left;spacingLeft=6;overflow=hidden;" vertex="1" parent="eV84DK9J-S-9GmUmP68l-102">
          <mxGeometry x="30" width="190" height="30" as="geometry" />
        </mxCell>
        <mxCell id="eV84DK9J-S-9GmUmP68l-105" value="sigfacil_ambiental.s_andamento_condicionante_licenca" style="shape=table;startSize=20;container=1;collapsible=1;childLayout=tableLayout;fixedRows=1;rowLines=0;fontStyle=1;align=center;resizeLast=1;" vertex="1" parent="1">
          <mxGeometry x="640" y="500" width="330" height="160" as="geometry">
            <mxRectangle x="660" y="570" width="350" height="30" as="alternateBounds" />
          </mxGeometry>
        </mxCell>
        <mxCell id="eV84DK9J-S-9GmUmP68l-106" value="" style="shape=partialRectangle;collapsible=0;dropTarget=0;pointerEvents=0;fillColor=none;top=0;left=0;bottom=1;right=0;points=[[0,0.5],[1,0.5]];portConstraint=eastwest;" vertex="1" parent="eV84DK9J-S-9GmUmP68l-105">
          <mxGeometry y="20" width="330" height="30" as="geometry" />
        </mxCell>
        <mxCell id="eV84DK9J-S-9GmUmP68l-107" value="PK" style="shape=partialRectangle;connectable=0;fillColor=none;top=0;left=0;bottom=0;right=0;fontStyle=1;overflow=hidden;" vertex="1" parent="eV84DK9J-S-9GmUmP68l-106">
          <mxGeometry width="30" height="30" as="geometry" />
        </mxCell>
        <mxCell id="eV84DK9J-S-9GmUmP68l-108" value="nu_seq_andamento_condicionante_licenca" style="shape=partialRectangle;connectable=0;fillColor=none;top=0;left=0;bottom=0;right=0;align=left;spacingLeft=6;fontStyle=5;overflow=hidden;" vertex="1" parent="eV84DK9J-S-9GmUmP68l-106">
          <mxGeometry x="30" width="300" height="30" as="geometry" />
        </mxCell>
        <mxCell id="eV84DK9J-S-9GmUmP68l-109" value="" style="shape=partialRectangle;collapsible=0;dropTarget=0;pointerEvents=0;fillColor=none;top=0;left=0;bottom=0;right=0;points=[[0,0.5],[1,0.5]];portConstraint=eastwest;" vertex="1" parent="eV84DK9J-S-9GmUmP68l-105">
          <mxGeometry y="50" width="330" height="30" as="geometry" />
        </mxCell>
        <mxCell id="eV84DK9J-S-9GmUmP68l-110" value="" style="shape=partialRectangle;connectable=0;fillColor=none;top=0;left=0;bottom=0;right=0;editable=1;overflow=hidden;" vertex="1" parent="eV84DK9J-S-9GmUmP68l-109">
          <mxGeometry width="30" height="30" as="geometry" />
        </mxCell>
        <mxCell id="eV84DK9J-S-9GmUmP68l-111" value="nu_seq_condicionante_licenca" style="shape=partialRectangle;connectable=0;fillColor=none;top=0;left=0;bottom=0;right=0;align=left;spacingLeft=6;overflow=hidden;" vertex="1" parent="eV84DK9J-S-9GmUmP68l-109">
          <mxGeometry x="30" width="300" height="30" as="geometry" />
        </mxCell>
        <mxCell id="eV84DK9J-S-9GmUmP68l-112" value="" style="shape=partialRectangle;collapsible=0;dropTarget=0;pointerEvents=0;fillColor=none;top=0;left=0;bottom=0;right=0;points=[[0,0.5],[1,0.5]];portConstraint=eastwest;" vertex="1" parent="eV84DK9J-S-9GmUmP68l-105">
          <mxGeometry y="80" width="330" height="30" as="geometry" />
        </mxCell>
        <mxCell id="eV84DK9J-S-9GmUmP68l-113" value="" style="shape=partialRectangle;connectable=0;fillColor=none;top=0;left=0;bottom=0;right=0;editable=1;overflow=hidden;" vertex="1" parent="eV84DK9J-S-9GmUmP68l-112">
          <mxGeometry width="30" height="30" as="geometry" />
        </mxCell>
        <mxCell id="eV84DK9J-S-9GmUmP68l-114" value="nu_seq_anexo_alvara" style="shape=partialRectangle;connectable=0;fillColor=none;top=0;left=0;bottom=0;right=0;align=left;spacingLeft=6;overflow=hidden;" vertex="1" parent="eV84DK9J-S-9GmUmP68l-112">
          <mxGeometry x="30" width="300" height="30" as="geometry" />
        </mxCell>
        <mxCell id="eV84DK9J-S-9GmUmP68l-115" value="" style="shape=partialRectangle;collapsible=0;dropTarget=0;pointerEvents=0;fillColor=none;top=0;left=0;bottom=0;right=0;points=[[0,0.5],[1,0.5]];portConstraint=eastwest;" vertex="1" parent="eV84DK9J-S-9GmUmP68l-105">
          <mxGeometry y="110" width="330" height="30" as="geometry" />
        </mxCell>
        <mxCell id="eV84DK9J-S-9GmUmP68l-116" value="" style="shape=partialRectangle;connectable=0;fillColor=none;top=0;left=0;bottom=0;right=0;editable=1;overflow=hidden;" vertex="1" parent="eV84DK9J-S-9GmUmP68l-115">
          <mxGeometry width="30" height="30" as="geometry" />
        </mxCell>
        <mxCell id="eV84DK9J-S-9GmUmP68l-117" value="nu_seq_andamento" style="shape=partialRectangle;connectable=0;fillColor=none;top=0;left=0;bottom=0;right=0;align=left;spacingLeft=6;overflow=hidden;" vertex="1" parent="eV84DK9J-S-9GmUmP68l-115">
          <mxGeometry x="30" width="300" height="30" as="geometry" />
        </mxCell>
        <mxCell id="eV84DK9J-S-9GmUmP68l-118" style="edgeStyle=orthogonalEdgeStyle;rounded=0;orthogonalLoop=1;jettySize=auto;html=1;exitX=0;exitY=0.5;exitDx=0;exitDy=0;entryX=1;entryY=0.233;entryDx=0;entryDy=0;entryPerimeter=0;endArrow=none;endFill=0;" edge="1" parent="1" source="eV84DK9J-S-9GmUmP68l-112" target="eV84DK9J-S-9GmUmP68l-90">
          <mxGeometry relative="1" as="geometry" />
        </mxCell>
        <mxCell id="eV84DK9J-S-9GmUmP68l-70" value="sigfacil_ambiental.s_andamento_licenca" style="shape=table;startSize=30;container=1;collapsible=1;childLayout=tableLayout;fixedRows=1;rowLines=0;fontStyle=1;align=center;resizeLast=1;" vertex="1" collapsed="1" parent="1">
          <mxGeometry x="640" y="330" width="260" height="30" as="geometry">
            <mxRectangle x="630" y="520" width="180" height="160" as="alternateBounds" />
          </mxGeometry>
        </mxCell>
        <mxCell id="eV84DK9J-S-9GmUmP68l-71" value="" style="shape=partialRectangle;collapsible=0;dropTarget=0;pointerEvents=0;fillColor=none;top=0;left=0;bottom=1;right=0;points=[[0,0.5],[1,0.5]];portConstraint=eastwest;" vertex="1" parent="eV84DK9J-S-9GmUmP68l-70">
          <mxGeometry y="30" width="180" height="30" as="geometry" />
        </mxCell>
        <mxCell id="eV84DK9J-S-9GmUmP68l-72" value="PK" style="shape=partialRectangle;connectable=0;fillColor=none;top=0;left=0;bottom=0;right=0;fontStyle=1;overflow=hidden;" vertex="1" parent="eV84DK9J-S-9GmUmP68l-71">
          <mxGeometry width="30" height="30" as="geometry" />
        </mxCell>
        <mxCell id="eV84DK9J-S-9GmUmP68l-73" value="UniqueID" style="shape=partialRectangle;connectable=0;fillColor=none;top=0;left=0;bottom=0;right=0;align=left;spacingLeft=6;fontStyle=5;overflow=hidden;" vertex="1" parent="eV84DK9J-S-9GmUmP68l-71">
          <mxGeometry x="30" width="150" height="30" as="geometry" />
        </mxCell>
        <mxCell id="eV84DK9J-S-9GmUmP68l-74" value="" style="shape=partialRectangle;collapsible=0;dropTarget=0;pointerEvents=0;fillColor=none;top=0;left=0;bottom=0;right=0;points=[[0,0.5],[1,0.5]];portConstraint=eastwest;" vertex="1" parent="eV84DK9J-S-9GmUmP68l-70">
          <mxGeometry y="60" width="180" height="30" as="geometry" />
        </mxCell>
        <mxCell id="eV84DK9J-S-9GmUmP68l-75" value="" style="shape=partialRectangle;connectable=0;fillColor=none;top=0;left=0;bottom=0;right=0;editable=1;overflow=hidden;" vertex="1" parent="eV84DK9J-S-9GmUmP68l-74">
          <mxGeometry width="30" height="30" as="geometry" />
        </mxCell>
        <mxCell id="eV84DK9J-S-9GmUmP68l-76" value="Row 1" style="shape=partialRectangle;connectable=0;fillColor=none;top=0;left=0;bottom=0;right=0;align=left;spacingLeft=6;overflow=hidden;" vertex="1" parent="eV84DK9J-S-9GmUmP68l-74">
          <mxGeometry x="30" width="150" height="30" as="geometry" />
        </mxCell>
        <mxCell id="eV84DK9J-S-9GmUmP68l-77" value="" style="shape=partialRectangle;collapsible=0;dropTarget=0;pointerEvents=0;fillColor=none;top=0;left=0;bottom=0;right=0;points=[[0,0.5],[1,0.5]];portConstraint=eastwest;" vertex="1" parent="eV84DK9J-S-9GmUmP68l-70">
          <mxGeometry y="90" width="180" height="30" as="geometry" />
        </mxCell>
        <mxCell id="eV84DK9J-S-9GmUmP68l-78" value="" style="shape=partialRectangle;connectable=0;fillColor=none;top=0;left=0;bottom=0;right=0;editable=1;overflow=hidden;" vertex="1" parent="eV84DK9J-S-9GmUmP68l-77">
          <mxGeometry width="30" height="30" as="geometry" />
        </mxCell>
        <mxCell id="eV84DK9J-S-9GmUmP68l-79" value="Row 2" style="shape=partialRectangle;connectable=0;fillColor=none;top=0;left=0;bottom=0;right=0;align=left;spacingLeft=6;overflow=hidden;" vertex="1" parent="eV84DK9J-S-9GmUmP68l-77">
          <mxGeometry x="30" width="150" height="30" as="geometry" />
        </mxCell>
        <mxCell id="eV84DK9J-S-9GmUmP68l-80" value="" style="shape=partialRectangle;collapsible=0;dropTarget=0;pointerEvents=0;fillColor=none;top=0;left=0;bottom=0;right=0;points=[[0,0.5],[1,0.5]];portConstraint=eastwest;" vertex="1" parent="eV84DK9J-S-9GmUmP68l-70">
          <mxGeometry y="120" width="180" height="30" as="geometry" />
        </mxCell>
        <mxCell id="eV84DK9J-S-9GmUmP68l-81" value="" style="shape=partialRectangle;connectable=0;fillColor=none;top=0;left=0;bottom=0;right=0;editable=1;overflow=hidden;" vertex="1" parent="eV84DK9J-S-9GmUmP68l-80">
          <mxGeometry width="30" height="30" as="geometry" />
        </mxCell>
        <mxCell id="eV84DK9J-S-9GmUmP68l-82" value="Row 3" style="shape=partialRectangle;connectable=0;fillColor=none;top=0;left=0;bottom=0;right=0;align=left;spacingLeft=6;overflow=hidden;" vertex="1" parent="eV84DK9J-S-9GmUmP68l-80">
          <mxGeometry x="30" width="150" height="30" as="geometry" />
        </mxCell>
        <mxCell id="eV84DK9J-S-9GmUmP68l-33" value="sigfacil_ambiental.s_licenca" style="shape=table;startSize=30;container=1;collapsible=1;childLayout=tableLayout;fixedRows=1;rowLines=0;fontStyle=1;align=center;resizeLast=1;" vertex="1" collapsed="1" parent="1">
          <mxGeometry x="640" y="230" width="190" height="30" as="geometry">
            <mxRectangle x="560" y="180" width="180" height="160" as="alternateBounds" />
          </mxGeometry>
        </mxCell>
        <mxCell id="eV84DK9J-S-9GmUmP68l-34" value="" style="shape=partialRectangle;collapsible=0;dropTarget=0;pointerEvents=0;fillColor=none;top=0;left=0;bottom=1;right=0;points=[[0,0.5],[1,0.5]];portConstraint=eastwest;" vertex="1" parent="eV84DK9J-S-9GmUmP68l-33">
          <mxGeometry y="30" width="180" height="30" as="geometry" />
        </mxCell>
        <mxCell id="eV84DK9J-S-9GmUmP68l-35" value="PK" style="shape=partialRectangle;connectable=0;fillColor=none;top=0;left=0;bottom=0;right=0;fontStyle=1;overflow=hidden;" vertex="1" parent="eV84DK9J-S-9GmUmP68l-34">
          <mxGeometry width="30" height="30" as="geometry" />
        </mxCell>
        <mxCell id="eV84DK9J-S-9GmUmP68l-36" value="UniqueID" style="shape=partialRectangle;connectable=0;fillColor=none;top=0;left=0;bottom=0;right=0;align=left;spacingLeft=6;fontStyle=5;overflow=hidden;" vertex="1" parent="eV84DK9J-S-9GmUmP68l-34">
          <mxGeometry x="30" width="150" height="30" as="geometry" />
        </mxCell>
        <mxCell id="eV84DK9J-S-9GmUmP68l-37" value="" style="shape=partialRectangle;collapsible=0;dropTarget=0;pointerEvents=0;fillColor=none;top=0;left=0;bottom=0;right=0;points=[[0,0.5],[1,0.5]];portConstraint=eastwest;" vertex="1" parent="eV84DK9J-S-9GmUmP68l-33">
          <mxGeometry y="60" width="180" height="30" as="geometry" />
        </mxCell>
        <mxCell id="eV84DK9J-S-9GmUmP68l-38" value="" style="shape=partialRectangle;connectable=0;fillColor=none;top=0;left=0;bottom=0;right=0;editable=1;overflow=hidden;" vertex="1" parent="eV84DK9J-S-9GmUmP68l-37">
          <mxGeometry width="30" height="30" as="geometry" />
        </mxCell>
        <mxCell id="eV84DK9J-S-9GmUmP68l-39" value="Row 1" style="shape=partialRectangle;connectable=0;fillColor=none;top=0;left=0;bottom=0;right=0;align=left;spacingLeft=6;overflow=hidden;" vertex="1" parent="eV84DK9J-S-9GmUmP68l-37">
          <mxGeometry x="30" width="150" height="30" as="geometry" />
        </mxCell>
        <mxCell id="eV84DK9J-S-9GmUmP68l-40" value="" style="shape=partialRectangle;collapsible=0;dropTarget=0;pointerEvents=0;fillColor=none;top=0;left=0;bottom=0;right=0;points=[[0,0.5],[1,0.5]];portConstraint=eastwest;" vertex="1" parent="eV84DK9J-S-9GmUmP68l-33">
          <mxGeometry y="90" width="180" height="30" as="geometry" />
        </mxCell>
        <mxCell id="eV84DK9J-S-9GmUmP68l-41" value="" style="shape=partialRectangle;connectable=0;fillColor=none;top=0;left=0;bottom=0;right=0;editable=1;overflow=hidden;" vertex="1" parent="eV84DK9J-S-9GmUmP68l-40">
          <mxGeometry width="30" height="30" as="geometry" />
        </mxCell>
        <mxCell id="eV84DK9J-S-9GmUmP68l-42" value="Row 2" style="shape=partialRectangle;connectable=0;fillColor=none;top=0;left=0;bottom=0;right=0;align=left;spacingLeft=6;overflow=hidden;" vertex="1" parent="eV84DK9J-S-9GmUmP68l-40">
          <mxGeometry x="30" width="150" height="30" as="geometry" />
        </mxCell>
        <mxCell id="eV84DK9J-S-9GmUmP68l-43" value="" style="shape=partialRectangle;collapsible=0;dropTarget=0;pointerEvents=0;fillColor=none;top=0;left=0;bottom=0;right=0;points=[[0,0.5],[1,0.5]];portConstraint=eastwest;" vertex="1" parent="eV84DK9J-S-9GmUmP68l-33">
          <mxGeometry y="120" width="180" height="30" as="geometry" />
        </mxCell>
        <mxCell id="eV84DK9J-S-9GmUmP68l-44" value="" style="shape=partialRectangle;connectable=0;fillColor=none;top=0;left=0;bottom=0;right=0;editable=1;overflow=hidden;" vertex="1" parent="eV84DK9J-S-9GmUmP68l-43">
          <mxGeometry width="30" height="30" as="geometry" />
        </mxCell>
        <mxCell id="eV84DK9J-S-9GmUmP68l-45" value="Row 3" style="shape=partialRectangle;connectable=0;fillColor=none;top=0;left=0;bottom=0;right=0;align=left;spacingLeft=6;overflow=hidden;" vertex="1" parent="eV84DK9J-S-9GmUmP68l-43">
          <mxGeometry x="30" width="150" height="30" as="geometry" />
        </mxCell>
        <mxCell id="eV84DK9J-S-9GmUmP68l-120" value="controle.s_fila_pdf_ambiental" style="shape=table;startSize=30;container=1;collapsible=1;childLayout=tableLayout;fixedRows=1;rowLines=0;fontStyle=1;align=center;resizeLast=1;" vertex="1" parent="1">
          <mxGeometry x="330" y="880" width="290" height="340" as="geometry" />
        </mxCell>
        <mxCell id="eV84DK9J-S-9GmUmP68l-121" value="" style="shape=partialRectangle;collapsible=0;dropTarget=0;pointerEvents=0;fillColor=none;top=0;left=0;bottom=1;right=0;points=[[0,0.5],[1,0.5]];portConstraint=eastwest;" vertex="1" parent="eV84DK9J-S-9GmUmP68l-120">
          <mxGeometry y="30" width="290" height="30" as="geometry" />
        </mxCell>
        <mxCell id="eV84DK9J-S-9GmUmP68l-122" value="PK" style="shape=partialRectangle;connectable=0;fillColor=none;top=0;left=0;bottom=0;right=0;fontStyle=1;overflow=hidden;" vertex="1" parent="eV84DK9J-S-9GmUmP68l-121">
          <mxGeometry width="30" height="30" as="geometry" />
        </mxCell>
        <mxCell id="eV84DK9J-S-9GmUmP68l-123" value="nu_seq_fila_pdf_ambiental" style="shape=partialRectangle;connectable=0;fillColor=none;top=0;left=0;bottom=0;right=0;align=left;spacingLeft=6;fontStyle=5;overflow=hidden;" vertex="1" parent="eV84DK9J-S-9GmUmP68l-121">
          <mxGeometry x="30" width="260" height="30" as="geometry" />
        </mxCell>
        <mxCell id="eV84DK9J-S-9GmUmP68l-124" value="" style="shape=partialRectangle;collapsible=0;dropTarget=0;pointerEvents=0;fillColor=none;top=0;left=0;bottom=0;right=0;points=[[0,0.5],[1,0.5]];portConstraint=eastwest;" vertex="1" parent="eV84DK9J-S-9GmUmP68l-120">
          <mxGeometry y="60" width="290" height="30" as="geometry" />
        </mxCell>
        <mxCell id="eV84DK9J-S-9GmUmP68l-125" value="" style="shape=partialRectangle;connectable=0;fillColor=none;top=0;left=0;bottom=0;right=0;editable=1;overflow=hidden;" vertex="1" parent="eV84DK9J-S-9GmUmP68l-124">
          <mxGeometry width="30" height="30" as="geometry" />
        </mxCell>
        <mxCell id="eV84DK9J-S-9GmUmP68l-126" value="nu_seq_alvara" style="shape=partialRectangle;connectable=0;fillColor=none;top=0;left=0;bottom=0;right=0;align=left;spacingLeft=6;overflow=hidden;" vertex="1" parent="eV84DK9J-S-9GmUmP68l-124">
          <mxGeometry x="30" width="260" height="30" as="geometry" />
        </mxCell>
        <mxCell id="eV84DK9J-S-9GmUmP68l-127" value="" style="shape=partialRectangle;collapsible=0;dropTarget=0;pointerEvents=0;fillColor=none;top=0;left=0;bottom=0;right=0;points=[[0,0.5],[1,0.5]];portConstraint=eastwest;" vertex="1" parent="eV84DK9J-S-9GmUmP68l-120">
          <mxGeometry y="90" width="290" height="30" as="geometry" />
        </mxCell>
        <mxCell id="eV84DK9J-S-9GmUmP68l-128" value="" style="shape=partialRectangle;connectable=0;fillColor=none;top=0;left=0;bottom=0;right=0;editable=1;overflow=hidden;" vertex="1" parent="eV84DK9J-S-9GmUmP68l-127">
          <mxGeometry width="30" height="30" as="geometry" />
        </mxCell>
        <mxCell id="eV84DK9J-S-9GmUmP68l-129" value="nu_seq_usuario" style="shape=partialRectangle;connectable=0;fillColor=none;top=0;left=0;bottom=0;right=0;align=left;spacingLeft=6;overflow=hidden;" vertex="1" parent="eV84DK9J-S-9GmUmP68l-127">
          <mxGeometry x="30" width="260" height="30" as="geometry" />
        </mxCell>
        <mxCell id="eV84DK9J-S-9GmUmP68l-130" value="" style="shape=partialRectangle;collapsible=0;dropTarget=0;pointerEvents=0;fillColor=none;top=0;left=0;bottom=0;right=0;points=[[0,0.5],[1,0.5]];portConstraint=eastwest;" vertex="1" parent="eV84DK9J-S-9GmUmP68l-120">
          <mxGeometry y="120" width="290" height="30" as="geometry" />
        </mxCell>
        <mxCell id="eV84DK9J-S-9GmUmP68l-131" value="" style="shape=partialRectangle;connectable=0;fillColor=none;top=0;left=0;bottom=0;right=0;editable=1;overflow=hidden;" vertex="1" parent="eV84DK9J-S-9GmUmP68l-130">
          <mxGeometry width="30" height="30" as="geometry" />
        </mxCell>
        <mxCell id="eV84DK9J-S-9GmUmP68l-132" value="dt_cadastro" style="shape=partialRectangle;connectable=0;fillColor=none;top=0;left=0;bottom=0;right=0;align=left;spacingLeft=6;overflow=hidden;" vertex="1" parent="eV84DK9J-S-9GmUmP68l-130">
          <mxGeometry x="30" width="260" height="30" as="geometry" />
        </mxCell>
        <mxCell id="eV84DK9J-S-9GmUmP68l-133" value="" style="shape=partialRectangle;collapsible=0;dropTarget=0;pointerEvents=0;fillColor=none;top=0;left=0;bottom=0;right=0;points=[[0,0.5],[1,0.5]];portConstraint=eastwest;" vertex="1" parent="eV84DK9J-S-9GmUmP68l-120">
          <mxGeometry y="150" width="290" height="30" as="geometry" />
        </mxCell>
        <mxCell id="eV84DK9J-S-9GmUmP68l-134" value="" style="shape=partialRectangle;connectable=0;fillColor=none;top=0;left=0;bottom=0;right=0;editable=1;overflow=hidden;" vertex="1" parent="eV84DK9J-S-9GmUmP68l-133">
          <mxGeometry width="30" height="30" as="geometry" />
        </mxCell>
        <mxCell id="eV84DK9J-S-9GmUmP68l-135" value="dt_validade" style="shape=partialRectangle;connectable=0;fillColor=none;top=0;left=0;bottom=0;right=0;align=left;spacingLeft=6;overflow=hidden;" vertex="1" parent="eV84DK9J-S-9GmUmP68l-133">
          <mxGeometry x="30" width="260" height="30" as="geometry" />
        </mxCell>
        <mxCell id="eV84DK9J-S-9GmUmP68l-136" value="" style="shape=partialRectangle;collapsible=0;dropTarget=0;pointerEvents=0;fillColor=none;top=0;left=0;bottom=0;right=0;points=[[0,0.5],[1,0.5]];portConstraint=eastwest;" vertex="1" parent="eV84DK9J-S-9GmUmP68l-120">
          <mxGeometry y="180" width="290" height="30" as="geometry" />
        </mxCell>
        <mxCell id="eV84DK9J-S-9GmUmP68l-137" value="" style="shape=partialRectangle;connectable=0;fillColor=none;top=0;left=0;bottom=0;right=0;editable=1;overflow=hidden;" vertex="1" parent="eV84DK9J-S-9GmUmP68l-136">
          <mxGeometry width="30" height="30" as="geometry" />
        </mxCell>
        <mxCell id="eV84DK9J-S-9GmUmP68l-138" value="dt_processamento" style="shape=partialRectangle;connectable=0;fillColor=none;top=0;left=0;bottom=0;right=0;align=left;spacingLeft=6;overflow=hidden;" vertex="1" parent="eV84DK9J-S-9GmUmP68l-136">
          <mxGeometry x="30" width="260" height="30" as="geometry" />
        </mxCell>
        <mxCell id="eV84DK9J-S-9GmUmP68l-139" value="" style="shape=partialRectangle;collapsible=0;dropTarget=0;pointerEvents=0;fillColor=none;top=0;left=0;bottom=0;right=0;points=[[0,0.5],[1,0.5]];portConstraint=eastwest;" vertex="1" parent="eV84DK9J-S-9GmUmP68l-120">
          <mxGeometry y="210" width="290" height="30" as="geometry" />
        </mxCell>
        <mxCell id="eV84DK9J-S-9GmUmP68l-140" value="" style="shape=partialRectangle;connectable=0;fillColor=none;top=0;left=0;bottom=0;right=0;editable=1;overflow=hidden;" vertex="1" parent="eV84DK9J-S-9GmUmP68l-139">
          <mxGeometry width="30" height="30" as="geometry" />
        </mxCell>
        <mxCell id="eV84DK9J-S-9GmUmP68l-141" value="ds_path" style="shape=partialRectangle;connectable=0;fillColor=none;top=0;left=0;bottom=0;right=0;align=left;spacingLeft=6;overflow=hidden;" vertex="1" parent="eV84DK9J-S-9GmUmP68l-139">
          <mxGeometry x="30" width="260" height="30" as="geometry" />
        </mxCell>
        <mxCell id="eV84DK9J-S-9GmUmP68l-142" value="" style="shape=partialRectangle;collapsible=0;dropTarget=0;pointerEvents=0;fillColor=none;top=0;left=0;bottom=0;right=0;points=[[0,0.5],[1,0.5]];portConstraint=eastwest;" vertex="1" parent="eV84DK9J-S-9GmUmP68l-120">
          <mxGeometry y="240" width="290" height="30" as="geometry" />
        </mxCell>
        <mxCell id="eV84DK9J-S-9GmUmP68l-143" value="" style="shape=partialRectangle;connectable=0;fillColor=none;top=0;left=0;bottom=0;right=0;editable=1;overflow=hidden;" vertex="1" parent="eV84DK9J-S-9GmUmP68l-142">
          <mxGeometry width="30" height="30" as="geometry" />
        </mxCell>
        <mxCell id="eV84DK9J-S-9GmUmP68l-144" value="ds_ultimo_erro" style="shape=partialRectangle;connectable=0;fillColor=none;top=0;left=0;bottom=0;right=0;align=left;spacingLeft=6;overflow=hidden;" vertex="1" parent="eV84DK9J-S-9GmUmP68l-142">
          <mxGeometry x="30" width="260" height="30" as="geometry" />
        </mxCell>
        <mxCell id="eV84DK9J-S-9GmUmP68l-145" value="" style="shape=partialRectangle;collapsible=0;dropTarget=0;pointerEvents=0;fillColor=none;top=0;left=0;bottom=0;right=0;points=[[0,0.5],[1,0.5]];portConstraint=eastwest;" vertex="1" parent="eV84DK9J-S-9GmUmP68l-120">
          <mxGeometry y="270" width="290" height="30" as="geometry" />
        </mxCell>
        <mxCell id="eV84DK9J-S-9GmUmP68l-146" value="" style="shape=partialRectangle;connectable=0;fillColor=none;top=0;left=0;bottom=0;right=0;editable=1;overflow=hidden;" vertex="1" parent="eV84DK9J-S-9GmUmP68l-145">
          <mxGeometry width="30" height="30" as="geometry" />
        </mxCell>
        <mxCell id="eV84DK9J-S-9GmUmP68l-147" value="js_dados_processo" style="shape=partialRectangle;connectable=0;fillColor=none;top=0;left=0;bottom=0;right=0;align=left;spacingLeft=6;overflow=hidden;" vertex="1" parent="eV84DK9J-S-9GmUmP68l-145">
          <mxGeometry x="30" width="260" height="30" as="geometry" />
        </mxCell>
        <mxCell id="eV84DK9J-S-9GmUmP68l-148" value="" style="shape=partialRectangle;collapsible=0;dropTarget=0;pointerEvents=0;fillColor=none;top=0;left=0;bottom=0;right=0;points=[[0,0.5],[1,0.5]];portConstraint=eastwest;" vertex="1" parent="eV84DK9J-S-9GmUmP68l-120">
          <mxGeometry y="300" width="290" height="30" as="geometry" />
        </mxCell>
        <mxCell id="eV84DK9J-S-9GmUmP68l-149" value="" style="shape=partialRectangle;connectable=0;fillColor=none;top=0;left=0;bottom=0;right=0;editable=1;overflow=hidden;" vertex="1" parent="eV84DK9J-S-9GmUmP68l-148">
          <mxGeometry width="30" height="30" as="geometry" />
        </mxCell>
        <mxCell id="eV84DK9J-S-9GmUmP68l-150" value="js_pdf_concatenados" style="shape=partialRectangle;connectable=0;fillColor=none;top=0;left=0;bottom=0;right=0;align=left;spacingLeft=6;overflow=hidden;" vertex="1" parent="eV84DK9J-S-9GmUmP68l-148">
          <mxGeometry x="30" width="260" height="30" as="geometry" />
        </mxCell>
        <mxCell id="eV84DK9J-S-9GmUmP68l-151" value="" style="whiteSpace=wrap;html=1;aspect=fixed;" vertex="1" parent="1">
          <mxGeometry x="390" y="1280" width="310" height="310" as="geometry" />
        </mxCell>
        <mxCell id="eV84DK9J-S-9GmUmP68l-152" value="" style="whiteSpace=wrap;html=1;aspect=fixed;" vertex="1" parent="1">
          <mxGeometry x="720" y="1280" width="310" height="310" as="geometry" />
        </mxCell>
        <mxCell id="eV84DK9J-S-9GmUmP68l-154" value="LICENCIAMENTO-SERVICE" style="text;html=1;strokeColor=none;fillColor=none;align=center;verticalAlign=middle;whiteSpace=wrap;rounded=0;" vertex="1" parent="1">
          <mxGeometry x="460" y="1290" width="180" height="20" as="geometry" />
        </mxCell>
        <mxCell id="eV84DK9J-S-9GmUmP68l-155" value="JOB-BUILDER-PDF-ALVARA-AMBIENTAL" style="text;html=1;strokeColor=none;fillColor=none;align=center;verticalAlign=middle;whiteSpace=wrap;rounded=0;" vertex="1" parent="1">
          <mxGeometry x="750" y="1290" width="250" height="20" as="geometry" />
        </mxCell>
        <mxCell id="eV84DK9J-S-9GmUmP68l-182" style="edgeStyle=orthogonalEdgeStyle;rounded=0;orthogonalLoop=1;jettySize=auto;html=1;exitX=0.88;exitY=0.25;exitDx=0;exitDy=0;exitPerimeter=0;startArrow=none;startFill=0;endArrow=classicThin;endFill=1;strokeColor=#000000;" edge="1" parent="1" source="eV84DK9J-S-9GmUmP68l-156" target="eV84DK9J-S-9GmUmP68l-178">
          <mxGeometry relative="1" as="geometry" />
        </mxCell>
        <mxCell id="eV84DK9J-S-9GmUmP68l-156" value="RABBITMQ" style="ellipse;shape=cloud;whiteSpace=wrap;html=1;" vertex="1" parent="1">
          <mxGeometry x="650" y="1395" width="120" height="80" as="geometry" />
        </mxCell>
        <mxCell id="eV84DK9J-S-9GmUmP68l-157" value="controle.s_fila_pdf_ambiental" style="shape=cylinder2;whiteSpace=wrap;html=1;boundedLbl=1;backgroundOutline=1;size=15;" vertex="1" parent="1">
          <mxGeometry x="680" y="1490" width="60" height="80" as="geometry" />
        </mxCell>
        <mxCell id="eV84DK9J-S-9GmUmP68l-158" value="" style="whiteSpace=wrap;html=1;aspect=fixed;" vertex="1" parent="1">
          <mxGeometry x="60" y="1280" width="310" height="310" as="geometry" />
        </mxCell>
        <mxCell id="eV84DK9J-S-9GmUmP68l-159" value="INTERNO-IPAAM" style="text;html=1;strokeColor=none;fillColor=none;align=center;verticalAlign=middle;whiteSpace=wrap;rounded=0;" vertex="1" parent="1">
          <mxGeometry x="130" y="1290" width="180" height="20" as="geometry" />
        </mxCell>
        <mxCell id="eV84DK9J-S-9GmUmP68l-160" value="BOTÃO GERAR PDF" style="ellipse;whiteSpace=wrap;html=1;aspect=fixed;" vertex="1" parent="1">
          <mxGeometry x="160" y="1380" width="80" height="80" as="geometry" />
        </mxCell>
        <mxCell id="eV84DK9J-S-9GmUmP68l-166" value="" style="edgeStyle=orthogonalEdgeStyle;rounded=0;orthogonalLoop=1;jettySize=auto;html=1;endArrow=classicThin;endFill=1;strokeColor=#000000;" edge="1" parent="1" source="eV84DK9J-S-9GmUmP68l-164" target="eV84DK9J-S-9GmUmP68l-165">
          <mxGeometry relative="1" as="geometry" />
        </mxCell>
        <mxCell id="eV84DK9J-S-9GmUmP68l-164" value="PdfProcessoAmbeintalController" style="ellipse;whiteSpace=wrap;html=1;aspect=fixed;" vertex="1" parent="1">
          <mxGeometry x="510" y="1350" width="90" height="90" as="geometry" />
        </mxCell>
        <mxCell id="eV84DK9J-S-9GmUmP68l-167" style="edgeStyle=orthogonalEdgeStyle;rounded=0;orthogonalLoop=1;jettySize=auto;html=1;exitX=1;exitY=0.25;exitDx=0;exitDy=0;entryX=0.07;entryY=0.4;entryDx=0;entryDy=0;entryPerimeter=0;endArrow=classicThin;endFill=1;strokeColor=#000000;" edge="1" parent="1" source="eV84DK9J-S-9GmUmP68l-165" target="eV84DK9J-S-9GmUmP68l-156">
          <mxGeometry relative="1" as="geometry" />
        </mxCell>
        <mxCell id="eV84DK9J-S-9GmUmP68l-168" style="edgeStyle=orthogonalEdgeStyle;rounded=0;orthogonalLoop=1;jettySize=auto;html=1;exitX=1;exitY=0.75;exitDx=0;exitDy=0;entryX=0.033;entryY=0.838;entryDx=0;entryDy=0;entryPerimeter=0;endArrow=classicThin;endFill=1;strokeColor=#000000;" edge="1" parent="1" source="eV84DK9J-S-9GmUmP68l-165" target="eV84DK9J-S-9GmUmP68l-157">
          <mxGeometry relative="1" as="geometry" />
        </mxCell>
        <mxCell id="eV84DK9J-S-9GmUmP68l-165" value="&lt;div&gt;PdfProcessoAmbientalProducerService&lt;/div&gt;" style="whiteSpace=wrap;html=1;" vertex="1" parent="1">
          <mxGeometry x="495" y="1490" width="120" height="60" as="geometry" />
        </mxCell>
        <mxCell id="eV84DK9J-S-9GmUmP68l-169" value="" style="curved=1;endArrow=classic;html=1;strokeColor=#000000;entryX=0;entryY=0;entryDx=0;entryDy=0;" edge="1" parent="1" source="eV84DK9J-S-9GmUmP68l-160" target="eV84DK9J-S-9GmUmP68l-164">
          <mxGeometry width="50" height="50" relative="1" as="geometry">
            <mxPoint x="400" y="1250" as="sourcePoint" />
            <mxPoint x="450" y="1200" as="targetPoint" />
            <Array as="points">
              <mxPoint x="233" y="1410" />
              <mxPoint x="380" y="1330" />
            </Array>
          </mxGeometry>
        </mxCell>
        <mxCell id="eV84DK9J-S-9GmUmP68l-170" value="Arquivo foi gerado e não houve download?" style="edgeLabel;html=1;align=center;verticalAlign=middle;resizable=0;points=[];" vertex="1" connectable="0" parent="eV84DK9J-S-9GmUmP68l-169">
          <mxGeometry x="0.0357" y="-15" relative="1" as="geometry">
            <mxPoint y="1" as="offset" />
          </mxGeometry>
        </mxCell>
        <mxCell id="eV84DK9J-S-9GmUmP68l-171" value="" style="curved=1;endArrow=classic;html=1;strokeColor=#000000;entryX=1;entryY=0.5;entryDx=0;entryDy=0;" edge="1" parent="1" source="eV84DK9J-S-9GmUmP68l-164" target="eV84DK9J-S-9GmUmP68l-160">
          <mxGeometry width="50" height="50" relative="1" as="geometry">
            <mxPoint x="400" y="1250" as="sourcePoint" />
            <mxPoint x="450" y="1200" as="targetPoint" />
            <Array as="points">
              <mxPoint x="360" y="1380" />
            </Array>
          </mxGeometry>
        </mxCell>
        <mxCell id="eV84DK9J-S-9GmUmP68l-172" value="Pdf ainda na vila de processamento" style="edgeLabel;html=1;align=center;verticalAlign=middle;resizable=0;points=[];" vertex="1" connectable="0" parent="eV84DK9J-S-9GmUmP68l-171">
          <mxGeometry x="-0.2063" y="-8" relative="1" as="geometry">
            <mxPoint as="offset" />
          </mxGeometry>
        </mxCell>
        <mxCell id="eV84DK9J-S-9GmUmP68l-173" value="" style="curved=1;endArrow=classic;html=1;strokeColor=#000000;" edge="1" parent="1" source="eV84DK9J-S-9GmUmP68l-164" target="eV84DK9J-S-9GmUmP68l-160">
          <mxGeometry width="50" height="50" relative="1" as="geometry">
            <mxPoint x="400" y="1250" as="sourcePoint" />
            <mxPoint x="450" y="1200" as="targetPoint" />
            <Array as="points">
              <mxPoint x="350" y="1520" />
            </Array>
          </mxGeometry>
        </mxCell>
        <mxCell id="eV84DK9J-S-9GmUmP68l-175" value="Binario" style="edgeLabel;html=1;align=center;verticalAlign=middle;resizable=0;points=[];" vertex="1" connectable="0" parent="eV84DK9J-S-9GmUmP68l-173">
          <mxGeometry x="-0.0235" y="-10" relative="1" as="geometry">
            <mxPoint x="-1.35" y="-20.27" as="offset" />
          </mxGeometry>
        </mxCell>
        <mxCell id="eV84DK9J-S-9GmUmP68l-176" value="" style="curved=1;endArrow=none;html=1;strokeColor=#000000;entryX=0.725;entryY=0.938;entryDx=0;entryDy=0;entryPerimeter=0;startArrow=classicThin;startFill=1;endFill=0;" edge="1" parent="1" target="eV84DK9J-S-9GmUmP68l-160">
          <mxGeometry width="50" height="50" relative="1" as="geometry">
            <mxPoint x="528.7117751864932" y="1431.6113648632381" as="sourcePoint" />
            <mxPoint x="243.28201177350525" y="1452.1880078490035" as="targetPoint" />
            <Array as="points">
              <mxPoint x="490" y="1460" />
              <mxPoint x="360" y="1530" />
            </Array>
          </mxGeometry>
        </mxCell>
        <mxCell id="eV84DK9J-S-9GmUmP68l-177" value="Remove o arquivo" style="edgeLabel;html=1;align=center;verticalAlign=middle;resizable=0;points=[];" vertex="1" connectable="0" parent="eV84DK9J-S-9GmUmP68l-176">
          <mxGeometry x="-0.0235" y="-10" relative="1" as="geometry">
            <mxPoint as="offset" />
          </mxGeometry>
        </mxCell>
        <mxCell id="eV84DK9J-S-9GmUmP68l-184" style="edgeStyle=orthogonalEdgeStyle;rounded=0;orthogonalLoop=1;jettySize=auto;html=1;exitX=0.5;exitY=1;exitDx=0;exitDy=0;entryX=1.017;entryY=0.6;entryDx=0;entryDy=0;entryPerimeter=0;startArrow=none;startFill=0;endArrow=classicThin;endFill=1;strokeColor=#000000;" edge="1" parent="1" source="eV84DK9J-S-9GmUmP68l-178" target="eV84DK9J-S-9GmUmP68l-157">
          <mxGeometry relative="1" as="geometry" />
        </mxCell>
        <mxCell id="eV84DK9J-S-9GmUmP68l-178" value="FilaPdfProcessoAmbientalConsumer" style="ellipse;whiteSpace=wrap;html=1;aspect=fixed;" vertex="1" parent="1">
          <mxGeometry x="870" y="1340" width="80" height="80" as="geometry" />
        </mxCell>
      </root>
    </mxGraphModel>
  </diagram>
</mxfile>
